<svg width="14" height="19" fill="none" xmlns="http://www.w3.org/2000/svg"><path d="M1 6.833c0-2.75 0-4.124.854-4.979C2.71 1 4.084 1 6.834 1c2.75 0 4.124 0 4.978.854.855.855.855 2.23.855 4.98v5c0 2.75 0 4.124-.855 4.978-.854.855-2.229.855-4.979.855s-4.124 0-4.979-.855C1 15.958 1 14.583 1 11.833v-5Z" stroke="#3F0B79" stroke-width="1.25" stroke-linecap="round"/><path d="M6 15.166h1.667" stroke="#3F0B79" stroke-width="1.25" stroke-linecap="round" stroke-linejoin="round"/><path d="m4.333 1 .075.445c.16.964.24 1.447.571 1.74.345.306.835.315 1.854.315 1.02 0 1.51-.009 1.854-.315.331-.293.412-.776.572-1.74L9.334 1" stroke="#3F0B79" stroke-width="1.25" stroke-linejoin="round"/></svg>