<svg xmlns="http://www.w3.org/2000/svg" width="14" height="18" fill="none"><path stroke="#FF7100" stroke-linejoin="round" stroke-width="1.25" d="M2.152 7.611c-.815 0-.985.16-.985.926v1.389c0 .766.17.926.985.926h1.97v5.555c0 .767.17.926.984.926h1.97c.815 0 .985-.16.985-.925v-5.556h2.212c.618 0 .777-.113.947-.672l.422-1.389c.29-.956.111-1.18-.947-1.18H8.06V5.296c0-.511.44-.926.985-.926h2.803c.815 0 .985-.16.985-.925V1.593c0-.766-.17-.926-.985-.926H9.046c-2.72 0-4.924 2.073-4.924 4.63V7.61h-1.97Z" clip-rule="evenodd"/></svg>