<svg width="27" height="27" fill="none" xmlns="http://www.w3.org/2000/svg"><path fill-rule="evenodd" clip-rule="evenodd" d="M13.5 0C20.956 0 27 6.044 27 13.5S20.956 27 13.5 27 0 20.956 0 13.5 6.044 0 13.5 0Zm-2.825 6.69c-2.54.116-3.873 1.546-3.984 3.985a63.062 63.062 0 0 0 0 5.65c.11 2.44 1.445 3.869 3.984 3.985a63.51 63.51 0 0 0 5.65 0c2.44-.112 3.869-1.444 3.985-3.985.083-1.848.083-3.801 0-5.65-.114-2.486-1.498-3.87-3.985-3.985a63.472 63.472 0 0 0-5.65 0Zm5.594 1.234c1.845.084 2.724.962 2.807 2.808a61.277 61.277 0 0 1 0 5.536c-.086 1.899-1.01 2.726-2.807 2.808-1.81.083-3.727.083-5.537 0-1.798-.082-2.722-.909-2.808-2.808a61.72 61.72 0 0 1 0-5.536c.082-1.798.91-2.722 2.808-2.808a61.734 61.734 0 0 1 5.537 0Zm-2.769 7.86a2.283 2.283 0 1 1 0-4.567 2.283 2.283 0 0 1 0 4.566Zm0-5.802a3.518 3.518 0 1 0 .001 7.037 3.518 3.518 0 0 0-.001-7.037Zm4.48-.14a.823.823 0 1 1-1.646 0 .823.823 0 0 1 1.645 0Z" fill="#3F0B79"/></svg>