<svg xmlns="http://www.w3.org/2000/svg" width="18" height="18" fill="none"><path stroke="#FF7100" stroke-linejoin="round" stroke-width="1.25" d="M1.083 9c0-3.732 0-5.598 1.16-6.757C3.401 1.083 5.267 1.083 9 1.083c3.732 0 5.598 0 6.757 1.16 1.16 1.159 1.16 3.025 1.16 6.757 0 3.732 0 5.598-1.16 6.757-1.16 1.16-3.025 1.16-6.757 1.16-3.732 0-5.598 0-6.758-1.16C1.083 14.597 1.083 12.732 1.083 9Z"/><path stroke="#FF7100" stroke-width="1.25" d="M12.75 9a3.75 3.75 0 1 1-7.5 0 3.75 3.75 0 0 1 7.5 0Z"/><path stroke="#FF7100" stroke-linecap="round" stroke-linejoin="round" stroke-width="1.667" d="M13.59 4.417h-.008"/></svg>