<svg width="27" height="27" fill="none" xmlns="http://www.w3.org/2000/svg"><path fill-rule="evenodd" clip-rule="evenodd" d="M23.066 3.924A13.389 13.389 0 0 0 13.556 0C6.146 0 .117 6.002.114 13.378a13.306 13.306 0 0 0 1.794 6.69L0 27l7.127-1.86a13.481 13.481 0 0 0 6.424 1.628h.006c7.409 0 13.44-6.002 13.443-13.38a13.265 13.265 0 0 0-3.934-9.464Zm-9.51 20.585h-.004c-2.005-.001-3.971-.538-5.687-1.55l-.408-.242-4.23 1.104 1.13-4.103-.266-.42a11.054 11.054 0 0 1-1.708-5.919c.002-6.131 5.015-11.12 11.178-11.12 2.985.002 5.79 1.16 7.9 3.262a11.028 11.028 0 0 1 3.27 7.867c-.003 6.132-5.016 11.12-11.175 11.12Zm6.13-8.33c-.336-.166-1.988-.975-2.296-1.087-.308-.111-.532-.167-.755.168-.225.334-.868 1.087-1.064 1.31-.196.223-.392.251-.728.084-.336-.167-1.418-.52-2.701-1.66-.999-.886-1.673-1.98-1.869-2.315-.196-.335-.002-.498.147-.682.364-.45.728-.92.84-1.144.112-.223.056-.418-.028-.585-.084-.168-.756-1.813-1.035-2.483-.273-.651-.55-.563-.756-.574a13.48 13.48 0 0 0-.644-.011c-.224 0-.588.083-.896.418-.308.335-1.176 1.143-1.176 2.789 0 1.645 1.204 3.235 1.372 3.458.168.223 2.369 3.6 5.738 5.048.802.345 1.427.55 1.915.704.805.255 1.537.219 2.116.133.646-.096 1.987-.81 2.267-1.59.28-.78.28-1.45.196-1.59-.084-.14-.308-.223-.643-.39Z" fill="#F2F1F3"/></svg>